<?xml version="1.0" encoding="utf-8"?>
<!-- Generator: Adobe Illustrator 27.0.0, SVG Export Plug-In . SVG Version: 6.00 Build 0)  -->
<svg version="1.1" id="Layer_1" xmlns="http://www.w3.org/2000/svg" xmlns:xlink="http://www.w3.org/1999/xlink" x="0px" y="0px"
	 viewBox="0 0 1024 1024" style="enable-background:new 0 0 1024 1024;" xml:space="preserve">
<style type="text/css">
	.st0{fill:#009CBF;}
	.st1{fill:#4D54A4;}
	.st2{fill:#009EBD;}
	.st3{fill:#5459A7;}
	.st4{fill:#565BA8;}
</style>
<g>
	<path class="st0" d="M935.49,249.7c-10.76,6.32-20.72,12.26-30.77,18.04c-53.26,30.71-106.55,61.39-159.84,92.07
		c-7.3,4.2-8.54,4.06-14.64-1.96c-2.12-2.08-4.23-4.28-5.85-6.75c-12.66-19.46-30.5-33.46-49.25-46.34
		c-37.52-25.79-78.86-41.86-124.1-47.74c-79.13-10.3-150.32,8.6-213.29,57.85c-9.21,7.2-16.78,16.11-25.03,24.34
		c-6.13,6.11-12.13,12.35-18.35,18.39c-5.24,5.09-5.58,5.12-11.54,1.8c-26.88-14.93-53.71-29.93-80.56-44.89
		c-12.77-7.12-25.53-14.26-38.33-21.36c-2.27-1.26-4.48-2.85-7.2-3.11c-1.93,2.38-1.14,4.85-1.14,7.09
		c-0.08,15.52,0.09,31.06-0.12,46.59c-0.06,4.54,1.09,7.96,4.53,11.03c3.55,3.16,7.26,6.28,9.77,10.42
		c8.46,13.97,7.36,34.53-8.46,44.41c-4.03,2.52-4.88,5.3-4.34,9.54c2.12,16.25,4.04,32.54,6.1,48.81
		c2.75,21.89,5.58,43.76,8.35,65.64c0.78,6.21,1.31,12.46,2.22,18.65c0.5,3.34-0.11,5.04-3.92,5.02c-19.12-0.09-38.23-0.08-57.35,0
		c-4.09,0.02-4.85-1.54-4.32-5.48c3.08-23.05,5.86-46.14,8.76-69.2c2.6-20.7,5.24-41.41,7.84-62.09c0.58-4.56,0.42-7.86-4.7-11
		c-14.26-8.77-15.54-29.83-11.71-40.1c1.54-4.14,4.56-7.05,7.93-9.47c7.73-5.57,10.56-13.03,10.64-22.4
		c0.16-18.51,0.09-37.02-0.09-55.53c-0.09-8.66-3.87-14.05-11.29-17.56c-4.04-1.91-8.1-3.83-12.07-5.9c-3.95-2.07-7.9-4.2-10.3-9.22
		c3.8-2.26,7.53-4.53,11.32-6.72c92.83-53.52,185.66-107.03,278.49-160.54c39.57-22.8,79.27-45.37,118.64-68.52
		c8.88-5.23,16.39-3.55,24.28,0.95c17.13,9.75,34.19,19.57,51.28,29.37c60.6,34.7,121.22,69.42,181.82,104.12
		c57.75,33.07,115.53,66.12,173.28,99.21C932.97,247.53,933.6,248.2,935.49,249.7z"/>
	<path class="st1" d="M308.8,628.84c-15.27-7.59-29.82-14.45-44.94-19.96c-3.48-1.28-3.19-3.86-3.14-6.52
		c0.25-14.34,0.31-28.68,0.89-43.01c0.59-14.62,1.65-29.21,2.58-43.82c3.11-49.2,20.7-92.99,50.68-131.7
		c39.37-50.85,90.39-84.31,154.04-95.34c74.68-12.93,142.31,5.37,201.51,52.67c46.15,36.88,74.34,84.88,85.16,143.03
		c7.31,39.28,8.04,78.92,7.25,118.68c-0.06,3.41-1.03,5.43-4.4,6.69c-13.42,5.02-26.4,11.11-39.26,17.42
		c-0.73,0.36-1.66,0.36-2.57,0.54c-1.31-3.97-0.26-7.84-0.45-11.65c-0.33-6.3-2.52-10.89-8.38-14.48
		c-38.08-23.38-79.39-38.36-122.76-48.2c-4.37-1-8.74-1.98-13.14-2.75c-3.56-0.62-4.79-2.47-4.76-6.1
		c0.09-11.04-0.23-22.1-0.23-33.15c0-5.94,0.17-5.99,5.99-5.35c44.14,4.87,85.64,18.32,124.98,38.68
		c5.24,2.71,10.44,5.51,15.82,8.35c16.89-93.56-63.71-211.73-176.53-219.04c0,31.56,0,63.11,0,94.09c-3.03,2.44-5.3,1.14-7.5,0.64
		c-10.89-2.47-21.71-3.86-32.7-0.3c-4.23,1.37-7.56-0.92-8.4-5.16c-0.3-1.45-0.16-2.97-0.16-4.46c0-24.79,0.05-49.59-0.06-74.38
		c-0.02-3.61,0.56-6.88,3.61-10.14c-8.57-2.21-15.94-0.48-22.91,1.34c-81.35,21.29-133.68,71.83-154.12,154.05
		c-5.07,20.39-6.81,41.16-5.65,62.47c3.75,0.67,6.27-1.82,9.01-3.16c30.07-14.73,60.76-27.81,93.36-36.02
		c14.81-3.73,29.83-5.96,44.97-7.61c3.8-0.42,5.49,0.62,5.44,4.68c-0.12,10.75-0.31,21.51,0.17,32.26c0.22,4.92-2.24,6.14-6.05,6.95
		c-16.36,3.44-32.46,7.89-48.41,12.91c-31.72,10-61.97,23.27-90.81,39.87c-5.71,3.28-8.1,7-7.44,13.47
		C309.89,619.42,310.11,623.65,308.8,628.84z"/>
	<path class="st0" d="M984.64,689.16c-8.98-1.29-17.19-2.61-25.42-3.64c-24.09-2.99-48.33-2.55-72.47-1.54
		c-69.25,2.89-135.76,18.43-199.72,44.95c-61.5,25.49-117.14,60.4-167.15,104.33c-7.48,6.56-8.59,6.35-15.54-0.05
		c-18.51-17.02-39-31.53-59.65-45.75c-71.66-49.32-150.63-80.82-236.18-95.86c-41.3-7.26-83.02-9.4-124.89-7.28
		c-14.56,0.73-29.04,2.64-43.91,4.04c1.14-3.92,4.51-5.49,7.26-7.56c32.68-24.62,66.95-47.01,100.41-70.53
		c2.19-1.54,4.4-3.1,6.58-4.67c13.89-10,13.86-9.83,30.36-7.22c53.23,8.46,102.26,27.77,147.83,56.32
		c43.88,27.5,81.97,61.72,116.44,100.13c21.37,23.81,40.72,49.22,58.58,75.77c4.71,7.02,5.71,6.91,10.16-0.06
		c45.02-70.46,102.24-128.95,172.56-174.28c42.29-27.27,88.02-46.49,137.71-55.69c7.9-1.46,15.96-2.12,23.88-3.5
		c3.87-0.68,6.92,0.19,10.02,2.41c38.47,27.81,78.5,53.42,116.44,81.97C980.27,683.25,983.01,684.67,984.64,689.16z"/>
	<path class="st0" d="M512.4,883.27c7.17-9.33,13.8-18.49,21.36-26.93c25.15-28.11,54.71-50.68,87.37-69.25
		c54.29-30.86,112.63-50.06,174.07-60.51c53.2-9.05,106.78-11.68,160.57-9.74c17.83,0.64,35.84,0.3,53.49,4.22
		c3.59,0.79,5.15,1.82,5.09,5.57c-0.17,8.66-0.08,17.33-0.05,25.98c0.02,3.11-0.68,5.29-4.54,4.7c-29.65-4.6-59.53-4.12-89.35-3.59
		c-80.08,1.43-157.83,15.52-232.36,45.3c-63.67,25.43-120.63,61.43-169.3,110.03c-6.86,6.84-7.12,7.05-13.77,0.11
		c-38.68-40.47-84.45-70.96-134.63-95.06c-50.62-24.3-103.91-40.15-159.19-49.85c-54.35-9.54-109.09-12.16-164.1-10.03
		c-10.67,0.42-21.5,0.42-32.01,2.92c-3.92,0.93-5.48-0.61-5.41-4.54c0.11-8.96,0.09-17.92,0.03-26.88c-0.02-2.91,1.14-4.15,4.15-4.5
		c7.11-0.78,14.14-2.44,21.26-2.86c41.17-2.46,82.36-3.16,123.54-0.11c64.61,4.78,127.75,16.5,187.99,41.22
		c48.22,19.8,92.32,46.18,129.98,82.61c10.75,10.39,20.56,21.64,29.34,33.78C507.62,878.26,508.79,881.13,512.4,883.27z"/>
	<path class="st1" d="M266.9,788.12c2.92-0.92,5.1,0.17,7.36,0.79c11.77,3.31,23.32,7.31,34.95,11.04
		c6.53,2.1,10.13,5.35,12.3,12.21c11.56,36.38,31.67,67.4,60.93,92.08c32.26,27.21,69.73,42.03,111.75,45.3
		c55.75,4.32,105.83-10.56,149.4-45.67c30.58-24.64,51.44-56.2,62.5-93.92c1.73-5.86,4.45-9.01,10.22-10.81
		c13.94-4.34,27.73-9.13,41.76-12.68c1.49,1.31,1.24,2.82,0.98,4.25c-11.11,60.65-38.47,111.99-87.37,150.59
		c-36.72,28.98-78.77,45.58-125.12,51.24c-55.75,6.81-109.02-1.48-158.71-28.12c-63.2-33.91-101.88-86.72-117.84-156.37
		C268.54,801.49,266.52,794.92,266.9,788.12z"/>
	<path class="st2" d="M556.99,527.69c-0.09,16.71-0.11,33.4-1.94,50.06c-2.61,23.57-19.91,39.93-42.74,39.88
		c-21.67-0.05-37.86-14.11-39.35-35.95c-2.13-31.25-3.19-62.58-1.06-93.9c0.33-4.76,0.37-9.55,0.64-14.31
		c0.9-16.24,13.91-31.65,29.85-34.69c7.92-1.51,16.07-1.77,23.97,0.5c15.73,4.5,26.51,18.91,28.71,37.49
		C557.09,493.69,556.87,510.69,556.99,527.69z"/>
	<path class="st3" d="M308.1,731.16c0.05,1.7-0.44,2.92-2.47,2.66c-0.58-0.08-1.15-0.28-1.73-0.42
		c-12.61-3.28-25.21-6.61-37.84-9.82c-2.41-0.61-4.48-1.07-4.82-4.2c-0.45-4.22,0.78-5.8,4.79-4.57
		c12.75,3.92,25.42,8.1,38.11,12.21C306.19,727.69,308.02,728.6,308.1,731.16z"/>
	<path class="st4" d="M758.02,714.77c2.13,6.18,0.42,8.82-4.79,10.05c-10.38,2.44-20.66,5.32-30.97,8c-1.85,0.48-4.28,2.43-5.4-0.26
		c-1.24-3,0.68-4.82,3.75-5.79c6.78-2.16,13.44-4.67,20.21-6.84C746.42,718.08,752.1,716.53,758.02,714.77z"/>
</g>
</svg>
